<svg xmlns="http://www.w3.org/2000/svg" width="920" height="560" viewBox="0 0 920 560">
  <rect width="100%" height="100%" fill="#ffffff"/>
  <text x="82" y="24" font-size="18" font-weight="700">IndraNet quantum model convergence</text>
  <text x="82" y="542" font-size="13">Training samples enrolled across all identities</text>
  <text x="20" y="262.0" font-size="13" transform="rotate(-90 20 262.0)">Held-out test accuracy</text>
  <line x1="82" y1="488.00" x2="884" y2="488.00" stroke="#d8e0dd" /><text x="70" y="492.00" text-anchor="end" font-size="12">0.0</text><line x1="82" y1="397.60" x2="884" y2="397.60" stroke="#d8e0dd" /><text x="70" y="401.60" text-anchor="end" font-size="12">0.2</text><line x1="82" y1="307.20" x2="884" y2="307.20" stroke="#d8e0dd" /><text x="70" y="311.20" text-anchor="end" font-size="12">0.4</text><line x1="82" y1="216.80" x2="884" y2="216.80" stroke="#d8e0dd" /><text x="70" y="220.80" text-anchor="end" font-size="12">0.6</text><line x1="82" y1="126.40" x2="884" y2="126.40" stroke="#d8e0dd" /><text x="70" y="130.40" text-anchor="end" font-size="12">0.8</text><line x1="82" y1="36.00" x2="884" y2="36.00" stroke="#d8e0dd" /><text x="70" y="40.00" text-anchor="end" font-size="12">1.0</text><line x1="82.00" y1="36" x2="82.00" y2="488" stroke="#eef2f3" /><text x="82.00" y="512" text-anchor="middle" font-size="12">3</text><line x1="242.40" y1="36" x2="242.40" y2="488" stroke="#eef2f3" /><text x="242.40" y="512" text-anchor="middle" font-size="12">6</text><line x1="402.80" y1="36" x2="402.80" y2="488" stroke="#eef2f3" /><text x="402.80" y="512" text-anchor="middle" font-size="12">9</text><line x1="563.20" y1="36" x2="563.20" y2="488" stroke="#eef2f3" /><text x="563.20" y="512" text-anchor="middle" font-size="12">12</text><line x1="723.60" y1="36" x2="723.60" y2="488" stroke="#eef2f3" /><text x="723.60" y="512" text-anchor="middle" font-size="12">15</text><line x1="884.00" y1="36" x2="884.00" y2="488" stroke="#eef2f3" /><text x="884.00" y="512" text-anchor="middle" font-size="12">18</text>
  <rect x="82" y="36" width="802" height="452" fill="none" stroke="#9aa8a3"/>
  <polyline fill="none" stroke="#0f766e" stroke-width="3" points="82.00,111.33 242.40,81.20 402.80,81.20 563.20,81.20 723.60,81.20 884.00,51.07" /><polyline fill="none" stroke="#2563eb" stroke-width="3" points="82.00,36.00 242.40,36.00 402.80,36.00 563.20,36.00 723.60,36.00 884.00,36.00" /><polyline fill="none" stroke="#b45309" stroke-width="3" points="82.00,66.13 242.40,66.13 402.80,66.13 563.20,66.13 723.60,36.00 884.00,36.00" /><polyline fill="none" stroke="#7c3aed" stroke-width="3" points="82.00,66.13 242.40,51.07 402.80,51.07 563.20,51.07 723.60,51.07 884.00,51.07" /><polyline fill="none" stroke="#dc2626" stroke-width="3" points="82.00,36.00 242.40,36.00 402.80,36.00 563.20,36.00 723.60,36.00 884.00,36.00" /><polyline fill="none" stroke="#0891b2" stroke-width="3" points="82.00,292.13 242.40,216.80 402.80,156.53 563.20,141.47 723.60,66.13 884.00,66.13" />
  <circle cx="82.00" cy="111.33" r="4" fill="#0f766e" /><circle cx="242.40" cy="81.20" r="4" fill="#0f766e" /><circle cx="402.80" cy="81.20" r="4" fill="#0f766e" /><circle cx="563.20" cy="81.20" r="4" fill="#0f766e" /><circle cx="723.60" cy="81.20" r="4" fill="#0f766e" /><circle cx="884.00" cy="51.07" r="4" fill="#0f766e" /><circle cx="82.00" cy="36.00" r="4" fill="#2563eb" /><circle cx="242.40" cy="36.00" r="4" fill="#2563eb" /><circle cx="402.80" cy="36.00" r="4" fill="#2563eb" /><circle cx="563.20" cy="36.00" r="4" fill="#2563eb" /><circle cx="723.60" cy="36.00" r="4" fill="#2563eb" /><circle cx="884.00" cy="36.00" r="4" fill="#2563eb" /><circle cx="82.00" cy="66.13" r="4" fill="#b45309" /><circle cx="242.40" cy="66.13" r="4" fill="#b45309" /><circle cx="402.80" cy="66.13" r="4" fill="#b45309" /><circle cx="563.20" cy="66.13" r="4" fill="#b45309" /><circle cx="723.60" cy="36.00" r="4" fill="#b45309" /><circle cx="884.00" cy="36.00" r="4" fill="#b45309" /><circle cx="82.00" cy="66.13" r="4" fill="#7c3aed" /><circle cx="242.40" cy="51.07" r="4" fill="#7c3aed" /><circle cx="402.80" cy="51.07" r="4" fill="#7c3aed" /><circle cx="563.20" cy="51.07" r="4" fill="#7c3aed" /><circle cx="723.60" cy="51.07" r="4" fill="#7c3aed" /><circle cx="884.00" cy="51.07" r="4" fill="#7c3aed" /><circle cx="82.00" cy="36.00" r="4" fill="#dc2626" /><circle cx="242.40" cy="36.00" r="4" fill="#dc2626" /><circle cx="402.80" cy="36.00" r="4" fill="#dc2626" /><circle cx="563.20" cy="36.00" r="4" fill="#dc2626" /><circle cx="723.60" cy="36.00" r="4" fill="#dc2626" /><circle cx="884.00" cy="36.00" r="4" fill="#dc2626" /><circle cx="82.00" cy="292.13" r="4" fill="#0891b2" /><circle cx="242.40" cy="216.80" r="4" fill="#0891b2" /><circle cx="402.80" cy="156.53" r="4" fill="#0891b2" /><circle cx="563.20" cy="141.47" r="4" fill="#0891b2" /><circle cx="723.60" cy="66.13" r="4" fill="#0891b2" /><circle cx="884.00" cy="66.13" r="4" fill="#0891b2" />
  <line x1="674" y1="52" x2="710" y2="52" stroke="#0f766e" stroke-width="3" /><text x="720" y="56" font-size="12">Single-eye QSVM</text><line x1="674" y1="73" x2="710" y2="73" stroke="#2563eb" stroke-width="3" /><text x="720" y="77" font-size="12">Single-eye QFT cosine</text><line x1="674" y1="94" x2="710" y2="94" stroke="#b45309" stroke-width="3" /><text x="720" y="98" font-size="12">Single-eye QRNG token</text><line x1="674" y1="115" x2="710" y2="115" stroke="#7c3aed" stroke-width="3" /><text x="720" y="119" font-size="12">Dual-eye QSVM</text><line x1="674" y1="136" x2="710" y2="136" stroke="#dc2626" stroke-width="3" /><text x="720" y="140" font-size="12">Dual-eye score fusion</text><line x1="674" y1="157" x2="710" y2="157" stroke="#0891b2" stroke-width="3" /><text x="720" y="161" font-size="12">Dual-eye QRNG token</text>
</svg>
